<?xml version="1.0" encoding="UTF-8"?>
<svg width="600px" height="600px" viewBox="0 0 600 600" version="1.1" xmlns="http://www.w3.org/2000/svg" xmlns:xlink="http://www.w3.org/1999/xlink">
    <title>assets/icon</title>
    <g id="/assets/icon" stroke="none" stroke-width="1" fill="none" fill-rule="evenodd">
        <g id="Group" transform="translate(109, 60)" stroke="#000000" stroke-width="30.6067488">
            <path d="M11.9026245,196.98566 C13.3383961,196.98566 14.7719149,197.099317 16.1897483,197.325566 L334.761882,248.161324 C339.713169,248.951419 344.010458,251.481847 347.069925,255.068233 C350.129392,258.654619 351.951038,263.296963 351.951038,268.310893 L351.951038,412.609959 C351.951038,418.921014 349.642987,424.757485 345.774702,429.250736 C341.906417,433.743987 336.477899,436.894017 330.236966,437.832191 L13.9938013,485.371691 C7.02887423,486.418699 0.298932339,484.543492 -4.95152981,480.665302 C-10.201992,476.787112 -13.9729744,470.905938 -15.0199825,463.941011 C-15.2086473,462.685971 -15.3033744,461.4186 -15.3033744,460.149459 L-15.3033744,224.191659 C-15.3033744,216.67893 -12.2582392,209.87743 -7.33492179,204.954113 C-2.41160435,200.030796 4.38989537,196.98566 11.9026245,196.98566 Z" id="Rectangle"></path>
            <path d="M208.473705,-11.4130312 L208.962604,-11.4053698 C211.336079,-11.3472683 213.691739,-10.9787333 215.96955,-10.3091566 L382.653427,38.6885888 C386.996057,39.9651314 390.658544,42.5960051 393.235373,46.0393348 C395.812203,49.4826646 397.303374,53.7384504 397.303374,58.2648171 L397.303374,320.441859 C397.303374,327.485043 394.44856,333.861449 389.83295,338.477059 C385.21734,343.092669 378.840934,345.947483 371.79775,345.947483 C368.842449,345.947483 365.90963,345.433872 363.130206,344.429576 L191.984541,282.589062 C186.82427,280.724488 182.549523,277.314096 179.598412,272.998556 C176.647301,268.683017 175.019827,263.462331 175.154101,257.977168 L181.098963,15.1266909 C181.282816,7.61621177 184.493487,0.891270136 189.535814,-3.91008848 C194.578141,-8.7114471 201.452125,-11.5892227 208.962604,-11.4053698 Z" id="Rectangle"></path>
        </g>
    </g>
</svg>